{"accessors":[{"bufferView":0,"componentType":5126,"count":129630,"max":[250.0,334.30963134765625,385.0],"min":[-250.0,-4.910513877868652,-385.0],"type":"VEC3"},{"bufferView":1,"componentType":5126,"count":129630,"type":"VEC3"},{"bufferView":2,"componentType":5125,"count":129630,"type":"SCALAR"},{"bufferView":3,"componentType":5126,"count":5598,"max":[19.365081787109375,341.9146423339844,354.3634338378906],"min":[-19.750919342041016,315.7996520996094,315.2474365234375],"type":"VEC3"},{"bufferView":4,"componentType":5126,"count":5598,"type":"VEC3"},{"bufferView":5,"componentType":5125,"count":5598,"type":"SCALAR"}],"asset":{"generator":"Luxion KeyShot","version":"2.0"},"bufferViews":[{"buffer":0,"byteLength":1555560,"byteOffset":0,"byteStride":12},{"buffer":0,"byteLength":1555560,"byteOffset":1555560,"byteStride":12},{"buffer":0,"byteLength":518520,"byteOffset":3111120},{"buffer":0,"byteLength":67176,"byteOffset":3629640,"byteStride":12},{"buffer":0,"byteLength":67176,"byteOffset":3696816,"byteStride":12},{"buffer":0,"byteLength":22392,"byteOffset":3763992}],"buffers":[{"byteLength":3786384,"uri":"./bot_resources/bot.bin"}],"cameras":[{"name":"active","perspective":{"aspectRatio":1.0,"yfov":0.6911154697478635,"zfar":3093.15869140625,"znear":2123.567626953125},"type":"perspective"}],"materials":[{"doubleSided":true,"pbrMetallicRoughness":{"baseColorFactor":[0.20000000298023224,0.30000001192092896,0.5,1.0],"metallicFactor":0.0,"roughnessFactor":1.0}}],"meshes":[{"name":"base_single-mesh","primitives":[{"attributes":{"NORMAL":1,"POSITION":0},"indices":2,"material":0,"mode":4}]},{"name":"base_single (1)-mesh","primitives":[{"attributes":{"NORMAL":4,"POSITION":3},"indices":5,"material":0,"mode":4}]}],"nodes":[{"camera":0,"matrix":[0.7660444605326218,-1.7982630584612025e-07,0.6427876274317512,0.0,0.1640779820473383,0.9668725360618191,-0.19554025312499262,0.0,-0.6214936375617981,0.25525981187820435,0.7406673431396484,0.0,-1621.0810546875,839.222900390625,1931.929443359375,1.0],"name":"active"},{"mesh":0,"name":"base_single"},{"mesh":1,"name":"base_single (1)"},{"children":[1,2],"matrix":[1.0,0.0,0.0,0.0,0.0,1.0,0.0,0.0,0.0,0.0,1.0,0.0,0.0,4.910513877868652,0.0,1.0],"name":"Research platform"},{"children":[3],"name":"Default"},{"children":[4],"matrix":[0.001,0.0,0.0,0.0,0.0,0.001,0.0,0.0,0.0,0.0,0.001,0.0,0.0,0.0,0.0,1.0],"name":"lux_root"}],"scenes":[{"nodes":[0,5]}]}  