{
   "accessors" : [
      {
         "bufferView" : 2,
         "byteOffset" : 0,
         "componentType" : 5126,
         "count" : 19987,
         "max" : [ 1, 1, 1, 1 ],
         "min" : [ 0.006584956776350737, 0.006584956776350737, 0.006584956776350737, 1 ],
         "name" : "accessor_color_m0-PolyPaper15_-194458",
         "type" : "VEC4"
      },
      {
         "bufferView" : 2,
         "byteOffset" : 319792,
         "componentType" : 5126,
         "count" : 3270,
         "max" : [ 1, 1, 1, 1 ],
         "min" : [ 0.006584956776350737, 0.006584956776350737, 0.006584956776350737, 1 ],
         "name" : "accessor_color_m1-PolyPaper23_-194464",
         "type" : "VEC4"
      },
      {
         "bufferView" : 0,
         "byteOffset" : 0,
         "componentType" : 5123,
         "count" : 29397,
         "max" : [ 19986 ],
         "min" : [ 0 ],
         "name" : "accessor_indices_0_m0-PolyPaper15_-194458",
         "type" : "SCALAR"
      },
      {
         "bufferView" : 0,
         "byteOffset" : 58794,
         "componentType" : 5123,
         "count" : 4812,
         "max" : [ 3269 ],
         "min" : [ 0 ],
         "name" : "accessor_indices_0_m1-PolyPaper23_-194464",
         "type" : "SCALAR"
      },
      {
         "bufferView" : 1,
         "byteOffset" : 239844,
         "componentType" : 5126,
         "count" : 19987,
         "max" : [ 0.9988595, 0.9998712, 0.9987971 ],
         "min" : [ -0.9988596, -0.9998711, -0.9987971 ],
         "name" : "accessor_normal_m0-PolyPaper15_-194458",
         "type" : "VEC3"
      },
      {
         "bufferView" : 1,
         "byteOffset" : 518928,
         "componentType" : 5126,
         "count" : 3270,
         "max" : [ 0.9950898, 0.9989846, 0.9994795 ],
         "min" : [ -0.9966038, -0.9989846, -0.9994796 ],
         "name" : "accessor_normal_m1-PolyPaper23_-194464",
         "type" : "VEC3"
      },
      {
         "bufferView" : 1,
         "byteOffset" : 0,
         "componentType" : 5126,
         "count" : 19987,
         "max" : [ 0.7407777, 2.314732, 0.08264217 ],
         "min" : [ -0.7764263, -0.1240312, -1.333532 ],
         "name" : "accessor_position_m0-PolyPaper15_-194458",
         "type" : "VEC3"
      },
      {
         "bufferView" : 1,
         "byteOffset" : 479688,
         "componentType" : 5126,
         "count" : 3270,
         "max" : [ 0.4577488, 1.463744, -0.1319893 ],
         "min" : [ -0.361394, -0.1892585, -1.427879 ],
         "name" : "accessor_position_m1-PolyPaper23_-194464",
         "type" : "VEC3"
      }
   ],
   "asset" : {
      "copyright" : "Unknown",
      "extras" : {
         "GOOGLE_processor_version" : 294144208
      },
      "generator" : "glTF 1-to-2 Upgrader for Google Blocks",
      "version" : "2.0"
   },
   "bufferViews" : [
      {
         "buffer" : 0,
         "byteLength" : 68418,
         "byteOffset" : 0,
         "name" : "ushortBufferView",
         "target" : 34963
      },
      {
         "buffer" : 0,
         "byteLength" : 558168,
         "byteOffset" : 68418,
         "byteStride" : 12,
         "name" : "vec3BufferView",
         "target" : 34962
      },
      {
         "buffer" : 0,
         "byteLength" : 372112,
         "byteOffset" : 626586,
         "byteStride" : 16,
         "name" : "vec4BufferView",
         "target" : 34962
      }
   ],
   "buffers" : [
      {
         "byteLength" : 998698,
         "name" : "model",
         "uri" : "model.bin"
      }
   ],
   "cameras" : [
      {
         "perspective" : {
            "yfov" : 0.7853981633974483,
            "znear" : 0.1000000014901161
         },
         "type" : "perspective"
      }
   ],
   "extensions" : {
      "KHR_lights_punctual" : {
         "lights" : [
            {
               "color" : [ 1, 0.9333333333333333, 0.8666666666666667 ],
               "intensity" : 0.25,
               "name" : "headLight",
               "type" : "directional"
            },
            {
               "color" : [ 1, 0.9333333333333333, 0.8666666666666667 ],
               "intensity" : 0.324999988079071,
               "name" : "keyLight",
               "type" : "directional"
            }
         ]
      }
   },
   "extensionsUsed" : [ "GOOGLE_backgrounds", "GOOGLE_camera_settings", "KHR_lights_punctual" ],
   "extras" : {
      "GOOGLE_initial_camera_motion" : {
         "motionPath" : "FULL_ROTATION"
      },
      "GOOGLE_lighting_rig" : {
         "disableShadows" : false
      }
   },
   "materials" : [
      {
         "alphaMode" : "OPAQUE",
         "doubleSided" : false,
         "name" : "BlocksPaper",
         "pbrMetallicRoughness" : {
            "baseColorFactor" : [ 1, 1, 1, 1 ],
            "metallicFactor" : 0,
            "roughnessFactor" : 0.6
         }
      },
      {
         "alphaMode" : "BLEND",
         "doubleSided" : false,
         "name" : "BlocksGlass",
         "pbrMetallicRoughness" : {
            "baseColorFactor" : [ 0.2, 0.2, 1, 0.3 ],
            "metallicFactor" : 1,
            "roughnessFactor" : 0.4
         }
      },
      {
         "alphaMode" : "OPAQUE",
         "doubleSided" : true,
         "name" : "BlocksGem",
         "pbrMetallicRoughness" : {
            "baseColorFactor" : [ 1, 0.4, 1, 1 ],
            "metallicFactor" : 0,
            "roughnessFactor" : 0.1
         }
      }
   ],
   "meshes" : [
      {
         "name" : "mesh_m0-PolyPaper15_-194458",
         "primitives" : [
            {
               "attributes" : {
                  "COLOR_0" : 0,
                  "NORMAL" : 4,
                  "POSITION" : 6
               },
               "indices" : 2,
               "material" : 0,
               "mode" : 4
            }
         ]
      },
      {
         "name" : "mesh_m1-PolyPaper23_-194464",
         "primitives" : [
            {
               "attributes" : {
                  "COLOR_0" : 1,
                  "NORMAL" : 5,
                  "POSITION" : 7
               },
               "indices" : 3,
               "material" : 0,
               "mode" : 4
            }
         ]
      }
   ],
   "nodes" : [
      {
         "mesh" : 1,
         "name" : "node_MeshObject1222064128-PolyPaper23"
      },
      {
         "mesh" : 0,
         "name" : "node_MeshObject649985024-PolyPaper15"
      },
      {
         "children" : [ 3 ]
      },
      {
         "children" : [ 4 ],
         "extras" : {
            "isTransformNode" : 1
         },
         "translation" : [ -0.03816400446828509, 1.153592641383571, -0.6191536546054834 ]
      },
      {
         "children" : [ 1, 0 ],
         "translation" : [ 0.03816400446828509, -1.153592641383571, 0.6191536546054834 ]
      },
      {
         "camera" : 0,
         "children" : [ 6 ],
         "rotation" : [
            -0.2794464314683389,
            -0.1531719835563492,
            -0.04520911130552767,
            0.9467862333430862
         ],
         "translation" : [ -0.8615348534764277, 2.841051692587618, 1.858401701702751 ]
      },
      {
         "extensions" : {
            "KHR_lights_punctual" : {
               "light" : 0
            }
         },
         "extras" : {
            "isHeadLight" : 1
         },
         "name" : "headLightNode",
         "translation" : [ -1.523398545655276, 0.7616992728276378, 0.7616992728276378 ]
      },
      {
         "extensions" : {
            "KHR_lights_punctual" : {
               "light" : 1
            }
         },
         "extras" : {
            "isKeyLight" : 1
         },
         "name" : "keyLightNode",
         "rotation" : [ -0.7505326882858236, -0.3752663441429118, 0, 0.5439447166468927 ],
         "scale" : [ 0, 0, 1.538632531111829 ],
         "translation" : [ -1.632762879476815, 4.258007609978385, -1.861480343249095 ]
      }
   ],
   "scene" : 0,
   "scenes" : [
      {
         "extensions" : {
            "GOOGLE_backgrounds" : {
               "color" : [ 0, 0, 0 ]
            },
            "GOOGLE_camera_settings" : {
               "pivot" : [ -0.0385302517191719, 1.153231913630219, -0.6186019251473693 ]
            }
         },
         "extras" : {
            "GOOGLE_camera_index" : {
               "cameraIndex" : 0,
               "nodeIndex" : 5
            },
            "GOOGLE_geometry_data" : {
               "stats" : {
                  "centroid" : [ -0.09413034836498696, 1.180742547754728, -0.322847812137266 ],
                  "radius" : 1.523398545655276,
                  "stdev" : 0.6437531928678456
               },
               "visualCenterPoint" : [ -0.03816400446828509, 1.153592641383571, -0.6191536546054834 ]
            },
            "GOOGLE_hemi_light" : {
               "groundColor" : [ 0, 0, 0 ]
            }
         },
         "name" : "defaultScene",
         "nodes" : [ 2, 5, 7 ]
      }
   ]
}
